/* XPM */
static char *result[] = {
/* columns rows colors chars-per-pixel */
"32 32 46 1 ",
"  c #282C32",
". c #282C33",
"X c #2A2D33",
"o c #2A2E33",
"O c #2F3033",
"+ c #303133",
"@ c #313233",
"# c #323232",
"$ c #323233",
"% c #323333",
"& c gray20",
"* c #343434",
"= c #3E3B34",
"- c #4C4535",
"; c #544C36",
": c #554D37",
"> c #564D36",
", c #564D37",
"< c #615537",
"1 c #695B37",
"2 c #6A5B37",
"3 c #6E613A",
"4 c #6F613A",
"5 c #77673B",
"6 c #77683A",
"7 c #77683B",
"8 c #917B3E",
"9 c #927C3E",
"0 c #A38A3F",
"q c #A48A40",
"w c #A48B40",
"e c #AE9241",
"r c #B49841",
"t c #B59842",
"y c #B89B43",
"u c #B99C43",
"i c #B99B44",
"p c #B99C44",
"a c #CBAA46",
"s c #DCB849",
"d c #DDB849",
"f c #E8C24B",
"g c #E9C24B",
"h c #EBC44B",
"j c #ECC44B",
"k c None",
/* pixels */
"kkkkkkkkkkkkkkkkkkkkkkkkkkkkkkkk",
"kkkkkkkkkkkkkkkkkkkkkkkkkkkkkkkk",
"kkkkkkkkkkkkkkk&&kkkkkkkkkkkkkkk",
"kkkkkkkkkkkk&&&&&&&&kkkkkkkkkkkk",
"kkkkkkkkkkk&&&&&&&&&&kkkkkkkkkkk",
"kkkkkkkkkk&O X@&&@X O&kkkkkkkkkk",
"kkkkkkkkk&@6tw,%&>wt7+&kkkkkkkkk",
"kkkkkkkkkO6djhi--uhjs5Okkkkkkkkk",
"kkkkkkkk#.tj3ef12ge4jr.&kkkkkkkk",
"kkkkkkkk&Xqheas<<daeh0o&kkkkkkkk",
"kkkkk&&*&@:pfs8==9sfy;$&&&&kkkkk",
"kkk#&&&#*&%-1<=&&=<1-&&*&&&&&kkk",
"kk*&&&&&&&&&&&&&&&&&&&&&&&&&&&kk",
"k*&&&&&&&&&&&&&&&&&&&&&*&&&&&&*k",
"*&&&&&&&&&&&&&&&&&&&&&&&&&&&&&&&",
"kkkkk&&&&&&&&&&&&&&&&&&&&&&kkkkk",
"kkkkkk&&&&&&&&&&&&&&&&&&&&kkkkkk",
"kkkkkk&&&&&&&&&&&&&&&&&&&&kkkkkk",
"kkkkkkk&&&&&&&&&&&&&&&&&&kkkkkkk",
"kkkkkkkkk&&&&&&&&&&&&&&kkkkkkkkk",
"kkkkkkkkk&&&&&&&&&&&&&&kkkkkkkkk",
"kkkkkkkkk&&&&&&&&&&&&&&kkkkkkkkk",
"kkkkkkkkk&&&&&&&&&&&&&&kkkkkkkkk",
"kkkkkkkkkk&&&&&&&&&&&&kkkkkkkkkk",
"kkkkkkkkkk&&&&&&&&&&&&kkkkkkkkkk",
"kkkkkkkkkk&&&&&&&&&&&&kkkkkkkkkk",
"kkkkkkkkkkk&&&&&&&&&&kkkkkkkkkkk",
"kkkkkkkkkkk*&&&&&&&&#kkkkkkkkkkk",
"kkkkkkkkkkkk#&&&&&&&kkkkkkkkkkkk",
"kkkkkkkkkkkkkkk&&kkkkkkkkkkkkkkk",
"kkkkkkkkkkkkkkkkkkkkkkkkkkkkkkkk",
"kkkkkkkkkkkkkkkkkkkkkkkkkkkkkkkk"
};
