/* XPM */
static char *result[] = {
/* columns rows colors chars-per-pixel */
"32 32 131 2 ",
"   c #EA5756",
".  c #EB5756",
"X  c #EB5757",
"o  c #E45663",
"O  c #E65762",
"+  c #E65763",
"@  c #E45664",
"#  c #F19747",
"$  c #F19748",
"%  c #F09749",
"&  c #F39948",
"*  c #F29949",
"=  c #F1984B",
"-  c #F2994A",
";  c #F1984C",
":  c #EF9751",
">  c #EF9752",
",  c #EB935D",
"<  c #F09754",
"1  c #DE8976",
"2  c #DF8976",
"3  c #DE8977",
"4  c #DE8978",
"5  c #E38D66",
"6  c #E38D67",
"7  c #E48E65",
"8  c #E48D66",
"9  c #E38D68",
"0  c #BD53B0",
"q  c #BD53B1",
"w  c #BD54B1",
"e  c #BD54B2",
"r  c #BB53BD",
"t  c #BC53BD",
"y  c #B668BB",
"u  c #B768BB",
"i  c #B769BB",
"p  c #B668BC",
"a  c #D95583",
"s  c #D95584",
"d  c #D95585",
"f  c #C9549E",
"g  c #D17E9E",
"h  c #D17F9E",
"j  c #D07E9F",
"k  c #D17E9F",
"l  c #C171B0",
"z  c #C171B1",
"x  c #C271B0",
"c  c #C373B2",
"v  c #C273B3",
"b  c #9B50DF",
"n  c #9B53DE",
"m  c #9D52DC",
"M  c #9D53DC",
"N  c #9D53DD",
"B  c #9E53DD",
"V  c #9B56DF",
"C  c #B352C3",
"Z  c #B353C3",
"A  c #B453C3",
"S  c #A452D2",
"D  c #A452D3",
"F  c #A257D6",
"G  c #A257D7",
"H  c #A459D3",
"J  c #A559D3",
"K  c #A45AD3",
"L  c #A55AD3",
"P  c #A258D6",
"I  c #A55AD5",
"U  c #A75BD4",
"Y  c #A45AD6",
"T  c #A55AD6",
"R  c #A75CD4",
"E  c #AC60D1",
"W  c #994FE2",
"Q  c #9B50E0",
"!  c #9A51E0",
"~  c #9B51E0",
"^  c #9A50E1",
"/  c #9B50E1",
"(  c #9A51E1",
")  c #9B51E1",
"_  c #9953E0",
"`  c #9B52E0",
"'  c #9A53E0",
"]  c #9950E2",
"[  c #9A50E2",
"{  c #9C51E0",
"}  c #9C51E1",
"|  c #9C52E0",
" . c #9A54E0",
".. c #9957E1",
"X. c #9958E1",
"o. c #9463E2",
"O. c #9364E2",
"+. c #9464E2",
"@. c #906CE3",
"#. c #916CE3",
"$. c #8E74E4",
"%. c #8E75E4",
"&. c #7F8FE8",
"*. c #7F90E8",
"=. c #7E91E8",
"-. c #6FA5EC",
";. c #70A4EB",
":. c #70A5EC",
">. c #6BB1ED",
",. c #6AB1EE",
"<. c #6BB1EE",
"1. c #6AB2EE",
"2. c #61BCEF",
"3. c #61BDEF",
"4. c #60BFF0",
"5. c #5FC0F0",
"6. c #58C7F1",
"7. c #56CAF2",
"8. c #56CBF2",
"9. c #55CDF2",
"0. c #56CCF2",
"q. c #60C0F0",
"w. c #8583E6",
"e. c #8584E6",
"r. c #8985E6",
"t. c #8986E6",
"y. c #878BE7",
"u. c #878CE7",
"i. c #8190E8",
"p. c #8191E8",
"a. c None",
/* pixels */
"a.a.a.a.a.a.a.a.a.a.a.a.a.a.a.a.a.a.a.a.a.a.a.a.a.a.a.a.a.a.a.a.",
"a.a.a.a.a.a.a.a.a.a.a.a.a.a.[ ] ] ( a.a.a.a.a.a.a.a.a.a.a.a.a.a.",
"a.a.a.a.a.a.a.a.a.a.a.a.! m i h g u M ~ a.a.a.a.a.a.a.a.a.a.a.a.",
"a.a.a.a.a.a.a.a.a.a.a.a.N x , = = , z N a.a.a.a.a.a.a.a.a.a.a.a.",
"a.a.a.a.a.a.a./ ~ ~ ~ ) R 7 * - - * 5 R b ) ~ ~ { a.a.a.a.a.a.a.",
"a.a.a.a.a.~ _ %.u.t.O.~ E # - - - - % E ! O.t.u.$._ ~ a.a.a.a.a.",
"a.a.a.a.a._ p.3.8.6.,.#.T 2 & - - & 4 Y @.1.6.8.2.i._ a.a.a.a.a.",
"a.a.a.a./ %.3.0.0.0.0.:.V v > < < > v V -.0.0.0.0.2.$.Q a.a.a.a.",
"a.a.a.a.Q u.8.0.0.0.0.4...B L G G L B ..q.0.0.0.0.7.y.Q a.a.a.a.",
"a.a.a.a.Q t.6.0.0.9.5.&.' S A t t Z D ' *.5.9.0.0.6.r.Q a.a.a.a.",
"a.a.a.a.) O.,.0.0.5.w.n 0 a @     @ s w n e.5.0.0.>.o.~ a.a.a.a.",
"a.a.a.a.) ` #.:.4.&.n f O . X X X X . + f n *.4.;.#.~ } a.a.a.a.",
"a.a.! N R E T V ..' w + X X X X X X X X + q ' ..V I E R N ~ a.a.",
"a.a.m x 7 # 2 v B S s . X X X X X X X X . d D B c 2 # 8 l M a.a.",
"a.[ i , * - & > J A o X X X X X X X X X X @ C L : & - * , y ^ a.",
"a.W h = - - - < G t   X X X X X X X X X X   r P < - - - ; g W a.",
"a.W g = - - - < G t   X X X X X X X X X X   r P < - - - ; j W a.",
"a.[ u , * - & > H A @ X X X X X X X X X X @ Z K > & - * , p ^ a.",
"a.a.M z 5 $ 3 v N D s . X X X X X X X X . d D M v 1 $ 6 z m a.a.",
"a.a.~ N R E T V ..' q + X X X X X X X X + e  .X.V T E R N ~ a.a.",
"a.a.a.a.b ! @.-.q.*.n f + . X X X X . + f n =.5.:.@.~ ` a.a.a.a.",
"a.a.a.a.) O.1.0.0.5.e.n q d @     @ d e n e.5.0.0.<.+.Q a.a.a.a.",
"a.a.a.a.Q t.6.0.0.9.5.*.' D C r r Z D  .*.5.9.0.0.6.r.Q a.a.a.a.",
"a.a.a.a.Q u.8.0.0.0.0.4...B L F F J B ..q.0.0.0.0.7.y.Q a.a.a.a.",
"a.a.a.a.) $.2.0.0.0.0.;.V c : < < > v V :.0.0.0.0.2.$.Q a.a.a.a.",
"a.a.a.a.a._ i.2.7.6.>.#.I 2 & - - & 1 T @.<.6.7.2.i._ a.a.a.a.a.",
"a.a.a.a.a.~ _ $.y.r.o.~ E # - - - - % E ~ +.r.y.$._ Q a.a.a.a.a.",
"a.a.a.a.a.a.a.Q Q Q ~ ) R 8 * - - * 9 U | Q Q Q Q a.a.a.a.a.a.a.",
"a.a.a.a.a.a.a.a.a.a.a.a.N l , ; ; , z N a.a.a.a.a.a.a.a.a.a.a.a.",
"a.a.a.a.a.a.a.a.a.a.a.a.~ M y g k p m ~ a.a.a.a.a.a.a.a.a.a.a.a.",
"a.a.a.a.a.a.a.a.a.a.a.a.a.a.^ W W ^ a.a.a.a.a.a.a.a.a.a.a.a.a.a.",
"a.a.a.a.a.a.a.a.a.a.a.a.a.a.a.a.a.a.a.a.a.a.a.a.a.a.a.a.a.a.a.a."
};
