/* XPM */
static char *result[] = {
/* columns rows colors chars-per-pixel */
"32 32 65 1 ",
"  c #313131",
". c #323232",
"X c gray20",
"o c #353535",
"O c #373737",
"+ c #393939",
"@ c #3C3C3C",
"# c gray24",
"$ c #3E3E3E",
"% c #3F3F3F",
"& c gray25",
"* c #414141",
"= c gray26",
"- c #434343",
"; c #444444",
": c gray27",
"> c #464646",
", c gray28",
"< c #484848",
"1 c #494949",
"2 c gray29",
"3 c #4B4B4B",
"4 c #4C4C4C",
"5 c gray30",
"6 c #4E4E4E",
"7 c gray31",
"8 c #505050",
"9 c #515151",
"0 c gray32",
"q c #535353",
"w c gray33",
"e c #555555",
"r c #565656",
"t c gray34",
"y c #585858",
"u c gray35",
"i c #5A5A5A",
"p c #5B5B5B",
"a c gray36",
"s c #5D5D5D",
"d c gray37",
"f c #5F5F5F",
"g c #606060",
"h c gray38",
"j c #626262",
"k c gray39",
"l c #646464",
"z c gray40",
"x c #676767",
"c c DimGray",
"v c #6A6A6A",
"b c gray42",
"n c #6D6D6D",
"m c gray43",
"M c #6F6F6F",
"N c gray44",
"B c #717171",
"V c #727272",
"C c #747474",
"Z c gray46",
"A c #767676",
"S c gray47",
"D c #797979",
"F c gray48",
"G c None",
/* pixels */
"GGGGGGGGGGGGGGGGGGGGGGGGGGGGGGGG",
"GG.          .GGG..          .GG",
"G.#gxxxxxxxxa#.GX+ehjjjjjkkjy@.G",
"G iADDDSSSDSAd GX1bNBNNNNNNNnt G",
"G jZZZZZZCCCZj GX4vccccccccccu G",
"G fBBBBBBNBBBf GX1kjjjkjjjjjjw.G",
"G anmnmnnnnnns GX>apppaapapaa7.G",
"G ivvccvvvvcvi GX=eeeeeeeeeee2.G",
"G.tzzzzzzzzzzt.GX$78888888886-.G",
"G.wkjjjjjkjjjw.GXo&>>>>>:>>:-O.G",
"G.0fddfddfdfd0.GGXX...........GG",
"G.7pppppppppp6.GGGGGGGGGGGGGGGGG",
"G.4yyyyyytttt4.GGGXXXXXXXXXXXXGG",
"G.2wwwwqwwwqw2.GGO4ttttrrtrt6+.G",
"G.,8898888888,.GX1BFDFFDFDFDCt G",
"G.>7777777876>.GXqAZZZZZZZZZZj G",
"G.>8767777777>.GX9VBVVVVVVVVVg G",
"GX*5777777775&XGX8Mmmmmmmmmmmd G",
"GXo@%%%%%%%%#o.GX5bvvbvbvvvvvi G",
"GGXXXXXXXXXX.XGGX4xzxzxxxzzxxt.G",
"GGGGGGGGGGGGGGGGX2lkkkkkkkkkke.G",
"GG.          .GGX<gffffffffff0.G",
"G.@ajjjjjjjjy@.GX>aappaaaaapp7.G",
"G.emNNNNNNNNnt GX;uyyyyyyyyyy5.G",
"G uccccccccccu GX=eeeewwwwwww2.G",
"G.ejjjkkjjjjkw.GX&90999999989,.G",
"G.7paaapaaaap7.GX%77777777777:.G",
"G.3eeeeeeweee2.GX%77777766776>.G",
"G.-6888888887=.GX$67677776776=XG",
"GXO=>:>>>>>:-O.GXo&::>>>>>>>;O.G",
"GGXX..........GGGXX...........GG",
"GGGGGGGGGGGGGGGGGGGGGGGGGGGGGGGG"
};
