/* XPM */
static char *_8940_4fe4d851973be05403b66063b14ddf7c4f2c05bdcbf95673a03b500fb7dd7cd7[] = {
/* columns rows colors chars-per-pixel */
"41 32 162 2 ",
"   c gray20",
".  c #353433",
"X  c #363533",
"o  c #373633",
"O  c #343434",
"+  c #353534",
"@  c #353535",
"#  c gray21",
"$  c #373737",
"%  c #393733",
"&  c #393834",
"*  c #3B3A34",
"=  c #3D3B34",
"-  c #3F3D35",
";  c gray22",
":  c #393939",
">  c #3A3A3A",
",  c gray23",
"<  c #3C3C3C",
"1  c gray24",
"2  c #3E3E3E",
"3  c #413E35",
"4  c #454135",
"5  c #444036",
"6  c #474236",
"7  c #484336",
"8  c #4F4937",
"9  c #504A37",
"0  c #534C37",
"q  c #564E38",
"w  c #574F38",
"e  c #5A5238",
"r  c #605639",
"t  c #615739",
"y  c #645939",
"u  c #6C603B",
"i  c #75663B",
"p  c #74663C",
"a  c gray25",
"s  c gray26",
"d  c #434343",
"f  c #444444",
"g  c gray27",
"h  c #464646",
"j  c #484848",
"k  c #494949",
"l  c #4B4B4B",
"z  c gray30",
"x  c #4E4E4E",
"c  c gray31",
"v  c #555555",
"b  c gray34",
"n  c gray35",
"m  c #5A5A5A",
"M  c #5D5D5D",
"N  c #606060",
"B  c gray38",
"V  c gray40",
"C  c #686868",
"Z  c DimGray",
"A  c #6D6D6D",
"S  c gray44",
"D  c #727272",
"F  c #747474",
"G  c gray46",
"H  c #767676",
"J  c #777777",
"K  c #7E7E7E",
"L  c #8A773F",
"P  c #927E3F",
"I  c #927D40",
"U  c #968140",
"Y  c #988240",
"T  c #A58D42",
"R  c #A99042",
"E  c #B09644",
"W  c #B89C45",
"Q  c #BD9F45",
"!  c #BFA145",
"~  c #C2A446",
"^  c #C5A646",
"/  c #C6A646",
"(  c #CBAA47",
")  c #CCAB47",
"_  c #CDAC47",
"`  c #D5B248",
"'  c #E2BC4A",
"]  c #E5BF4B",
"[  c #E6BF4A",
"{  c #E8C14B",
"}  c #EBC44B",
"|  c #EDC54B",
" . c #EFC74C",
".. c #F0C74B",
"X. c #F1C84C",
"o. c #F2C94C",
"O. c #808080",
"+. c #818181",
"@. c #838383",
"#. c #868686",
"$. c #898989",
"%. c #8B8B8B",
"&. c #8D8D8D",
"*. c gray56",
"=. c #909090",
"-. c #929292",
";. c #939393",
":. c gray58",
">. c #959595",
",. c gray60",
"<. c #9D9D9D",
"1. c gray62",
"2. c #9F9F9F",
"3. c gray63",
"4. c gray64",
"5. c #A4A4A4",
"6. c #A5A5A5",
"7. c gray65",
"8. c #A7A7A7",
"9. c #A9A9A9",
"0. c #ACACAC",
"q. c gray69",
"w. c #B4B4B4",
"e. c gray71",
"r. c gray72",
"t. c #C6C6C6",
"y. c gray78",
"u. c gray79",
"i. c #CBCBCB",
"p. c gray80",
"a. c #CDCDCD",
"s. c #CECECE",
"d. c #D0D0D0",
"f. c #D2D2D2",
"g. c LightGray",
"h. c #D5D5D5",
"j. c #D7D7D7",
"k. c #DDDDDD",
"l. c gray87",
"z. c #DFDFDF",
"x. c gray88",
"c. c #E1E1E1",
"v. c #E2E2E2",
"b. c #E4E4E4",
"n. c #E7E7E7",
"m. c gray91",
"M. c #EAEAEA",
"N. c gray92",
"B. c #ECECEC",
"V. c #EEEEEE",
"C. c gray94",
"Z. c #F1F1F1",
"A. c #F3F3F3",
"S. c #F4F4F4",
"D. c gray96",
"F. c #F6F6F6",
"G. c #F8F8F8",
"H. c #F9F9F9",
"J. c gray98",
"K. c #FBFBFB",
"L. c #FDFDFD",
"P. c white",
/* pixels */
"P.P.P.P.P.P.P.P.P.P.P.P.P.P.P.P.z.>.M g ; k A 0.D.P.P.P.P.P.P.P.P.P.P.P.P.P.P.P.P.",
"P.P.P.P.P.P.P.P.P.P.P.P.P.P.S.@.@               g q.P.P.P.P.P.P.P.P.P.P.P.P.P.P.P.",
"P.P.P.P.P.P.P.P.P.P.P.P.P.n.v                       #.L.P.P.P.P.P.P.P.P.P.P.P.P.P.",
"P.P.P.P.P.P.P.P.P.P.P.P.D.b                           :.P.P.P.P.P.P.P.P.P.P.P.P.P.",
"P.P.P.P.P.P.P.P.P.P.P.P.#.    - t 6         + w e .   O a.P.P.P.P.P.P.P.P.P.P.P.P.",
"P.P.P.P.P.P.P.P.P.P.P.v.#   u { o. .L     * ~ o.o._ 5   B P.P.P.P.P.P.P.P.P.P.P.P.",
"P.P.P.P.P.P.P.P.P.P.P.,.  o ]  .E [ ..9   I o._ ^ o.T     c.P.P.P.P.P.P.P.P.P.P.P.",
"P.P.P.P.P.P.P.P.P.P.P.B   8 o.!   Y o.i   W o.q 3 o.)     8.P.P.P.P.P.P.P.P.P.P.P.",
"P.P.P.P.P.P.P.P.P.P.P.h   & { | T ' X.0   U o./ Q o.R     &.P.P.P.P.P.P.P.P.P.P.P.",
"P.P.P.P.P.P.P.P.P.P.P.>     p } o.X.P     = ( o.o.` 7     O.P.P.P.P.P.P.P.P.P.P.P.",
"P.P.P.P.P.P.P.P.P.P.P.l       4 u 8         X r y %       -.P.P.P.P.P.P.P.P.P.P.P.",
"P.P.P.P.l.1.Z.P.P.P.P.Z                                   q.P.P.P.P.s.5.K.P.P.P.P.",
"P.P.P.e.O   > d.P.P.P.6.                                @ B.P.P.P.%.    s A.P.P.P.",
"P.P.m.#       $ x.P.P.V.1                               F P.P.P.;.        m P.P.P.",
"P.P.m           < m.P.P.<.                            : z.P.P.4.            r.P.P.",
"P.k.              < i.P.L.S                           q.P.P.%.O             h P.P.",
"P.V                   x t.D.D                     $ 0.P.*.,                   y.P.",
"A.@                       #.L.9.d               N f.A.j                       b P.",
"O.    x %.+.#               0.p.f               Z C.v               k =.G 2   O b.",
"j b j.P.P.P.y.              a ;                   c               a L.P.P.P.7.2 %.",
"K.P.P.P.P.P.P.h   : O                                       $ #   -.P.P.P.P.P.P.K.",
"P.P.P.P.P.P.P.y.N.P.K.A                                 @ w.P.P.u.N.P.P.P.P.P.P.P.",
"P.P.P.P.P.P.P.P.P.P.P.P.x                               3.P.P.P.P.P.P.P.P.P.P.P.P.",
"P.P.P.P.P.P.P.P.P.P.P.P.g.                            ; P.P.P.P.P.P.P.P.P.P.P.P.P.",
"P.P.P.P.P.P.P.P.P.P.P.P.M.                            z P.P.P.P.P.P.P.P.P.P.P.P.P.",
"P.P.P.P.P.P.P.P.P.P.P.P.J.O                           H P.P.P.P.P.P.P.P.P.P.P.P.P.",
"P.P.P.P.P.P.P.P.P.P.P.P.P.n                           3.P.P.P.P.P.P.P.P.P.P.P.P.P.",
"P.P.P.P.P.P.P.P.P.P.P.P.P.2.                        # b.P.P.P.P.P.P.P.P.P.P.P.P.P.",
"P.P.P.P.P.P.P.P.P.P.P.P.P.F.k                       $.P.P.P.P.P.P.P.P.P.P.P.P.P.P.",
"P.P.P.P.P.P.P.P.P.P.P.P.P.P.g.,                   M G.P.P.P.P.P.P.P.P.P.P.P.P.P.P.",
"P.P.P.P.P.P.P.P.P.P.P.P.P.P.P.h.x               J D.P.P.P.P.P.P.P.P.P.P.P.P.P.P.P.",
"P.P.P.P.P.P.P.P.P.P.P.P.P.P.P.P.H.0.C g ; z K a.P.P.P.P.P.P.P.P.P.P.P.P.P.P.P.P.P."
};
