/* XPM */
static char *result[] = {
/* columns rows colors chars-per-pixel */
"32 32 68 1 ",
"  c #262B32",
". c #272C32",
"X c #282C32",
"o c #2A2D33",
"O c #2B2E33",
"+ c #2D2F33",
"@ c #2F3133",
"# c #303133",
"$ c #313233",
"% c #323232",
"& c #323233",
"* c #323333",
"= c gray20",
"- c #343433",
"; c #353533",
": c #343434",
"> c #3A3834",
", c #3C3934",
"< c #454034",
"1 c #474134",
"2 c #484335",
"3 c #494335",
"4 c #4A4335",
"5 c #4C4635",
"6 c #504936",
"7 c #564E37",
"8 c #5A5037",
"9 c #655837",
"0 c #605538",
"q c #615638",
"w c #655938",
"e c #675938",
"r c #6A5C39",
"t c #6C5D38",
"y c #75653A",
"u c #7F6D3B",
"i c #85713B",
"p c #8D783C",
"a c #8F7B3F",
"s c #A48B40",
"d c #AC9142",
"f c #AF9343",
"g c #B19541",
"h c #B19543",
"j c #B39643",
"k c #B69942",
"l c #BD9F43",
"z c #BE9F44",
"x c #C3A344",
"c c #C8A746",
"v c #CBA945",
"b c #CDAB46",
"n c #D0AE47",
"m c #D3B048",
"M c #D7B448",
"N c #DCB849",
"B c #DFB948",
"V c #E0BB4A",
"C c #E3BC49",
"Z c #E1BC4A",
"A c #E2BC4A",
"S c #E6C04A",
"D c #E7C04A",
"F c #E8C14A",
"G c #EAC34B",
"H c #EFC74C",
"J c #F1C94C",
"K c None",
/* pixels */
"KKKKKKKKKKKKKKKKKKKKKKKKKKKKKKKK",
"KKKKKKKKKKKKKKKKKKKKKKKKKKKKKKKK",
"KKKKKKKKKKKKKKKKKKKKKKKKKKKKKKKK",
"KKKKKKKKKKKKKKKKKKKKKKKKKKKKKKKK",
"KKKKKKKKKKKK=======KKKKKKKKKKKKK",
"KKKKKKKKKKK%=========KKKKKKKKKKK",
"KKKKKKKKKK=$.X$==@ o&=KKKKKKKKKK",
"KKKKKKKKK=-rxzq*;uvh6=KKKKKKKKKK",
"KKKKKKKKK=4MCAb5tZBDj,=KKKKKKKKK",
"KKKKKKKKK=8JpaV9iHwfm<=KKKKKKKKK",
"KKKKKKKKK=1nFFc2eNSGd>=KKKKKKKKK",
"KKKKKKKKK==0kg7&=yls3==KKKKKKKKK",
"KKKKKKKKK==$OO&==#o+*==KKKK=KKKK",
"KKK%==KKK==============KKK===KKK",
"KK=====KKK============KKK=====KK",
"K======:KK===========KKK:=====KK",
"K========:K=========KK=========K",
"K==========K=======KK======%===K",
"%=KKK======================KKK=%",
"KKKKKK====================KKKKKK",
"KKKKKKKKK%============%KKKKKKKKK",
"KKKKKKKKKK============KKKKKKKKKK",
"KKKKKKKKKK============KKKKKKKKKK",
"KKKKKKKKKK============KKKKKKKKKK",
"KKKKKKKKKK===========KKKKKKKKKKK",
"KKKKKKKKKKK==========KKKKKKKKKKK",
"KKKKKKKKKKKK========KKKKKKKKKKKK",
"KKKKKKKKKKKKK======KKKKKKKKKKKKK",
"KKKKKKKKKKKKKKKKKKKKKKKKKKKKKKKK",
"KKKKKKKKKKKKKKKKKKKKKKKKKKKKKKKK",
"KKKKKKKKKKKKKKKKKKKKKKKKKKKKKKKK",
"KKKKKKKKKKKKKKKKKKKKKKKKKKKKKKKK"
};
