/* XPM */
static char *_9663_bac7b4d9efc631009df1f8b7c709258372608abe359a2f60438fea55228276f9[] = {
/* columns rows colors chars-per-pixel */
"38 38 126 2 ",
"   c gray20",
".  c #353433",
"X  c #343434",
"o  c #353534",
"O  c #353535",
"+  c gray21",
"@  c #373737",
"#  c #393733",
"$  c #393834",
"%  c #3A3834",
"&  c gray22",
"*  c #393939",
"=  c gray23",
"-  c #3C3C3C",
";  c gray24",
":  c #3E3E3E",
">  c #444035",
",  c #444036",
"<  c #504A37",
"1  c #514B37",
"2  c #574F37",
"3  c #575038",
"4  c #5E5538",
"5  c #5E5539",
"6  c #625839",
"7  c #635839",
"8  c #645939",
"9  c #655A3A",
"0  c #6D603A",
"q  c #6F623B",
"w  c #73653B",
"e  c #74663C",
"r  c #7D6D3D",
"t  c #7F6F3D",
"y  c gray25",
"u  c #414141",
"i  c gray26",
"p  c #444444",
"a  c gray27",
"s  c #464646",
"d  c gray30",
"f  c gray31",
"g  c #515151",
"h  c gray33",
"j  c #555555",
"k  c #585858",
"l  c #5A5A5A",
"z  c gray37",
"x  c gray38",
"c  c gray39",
"v  c #6D6D6D",
"b  c #6F6F6F",
"n  c #727272",
"m  c gray45",
"M  c #777777",
"N  c gray47",
"B  c #797979",
"V  c gray49",
"C  c gray50",
"Z  c #84733D",
"A  c #85743E",
"S  c #A58D42",
"D  c #A99042",
"F  c #B09543",
"G  c #B19643",
"H  c #BC9E45",
"J  c #C3A446",
"K  c #CAA947",
"L  c #CBAA46",
"P  c #CDAC47",
"I  c #D2B047",
"U  c #D2B048",
"Y  c #DAB649",
"T  c #DCB849",
"R  c #DDB94A",
"E  c #DFBA4A",
"W  c #E1BC4A",
"Q  c #E6BF4A",
"!  c #E7C04B",
"~  c #F0C84C",
"^  c #F2C94C",
"/  c #838383",
"(  c #868686",
")  c #929292",
"_  c #939393",
"`  c gray58",
"'  c #989898",
"]  c gray60",
"[  c #9A9A9A",
"{  c gray61",
"}  c #9D9D9D",
"|  c gray63",
" . c #A2A2A2",
".. c gray64",
"X. c #A5A5A5",
"o. c gray66",
"O. c #A9A9A9",
"+. c gray67",
"@. c gray71",
"#. c #B6B6B6",
"$. c gray73",
"%. c gray",
"&. c gray75",
"*. c #C0C0C0",
"=. c #C3C3C3",
"-. c gray77",
";. c #C8C8C8",
":. c gray79",
">. c #CACACA",
",. c #CBCBCB",
"<. c gray80",
"1. c #CDCDCD",
"2. c #CECECE",
"3. c LightGray",
"4. c #E1E1E1",
"5. c #E4E4E4",
"6. c gray92",
"7. c #EFEFEF",
"8. c #F3F3F3",
"9. c gray96",
"0. c #F6F6F6",
"q. c gray97",
"w. c #F9F9F9",
"e. c #FBFBFB",
"r. c #FDFDFD",
"t. c white",
/* pixels */
"t.t.t.t.t.t.t.t.t.t.t.t.t.t.t.t.t.t.t.t.t.t.t.t.t.t.t.t.t.t.t.t.t.t.t.t.t.t.",
"t.t.t.t.t.t.t.t.t.t.t.t.t.t.t.t.t.t.t.t.t.t.t.t.t.t.t.t.t.t.t.t.t.t.t.t.t.t.",
"t.t.t.t.t.t.t.t.t.t.t.t.t.t.t.t.t.r.6.6.r.t.t.t.t.t.t.t.t.t.t.t.t.t.t.t.t.t.",
"t.t.t.t.t.t.t.t.t.t.t.t.t.t.9. .x O     O x ..9.t.t.t.t.t.t.t.t.t.t.t.t.t.t.",
"t.t.t.t.t.t.t.t.t.t.t.t.t.@.p                 a #.t.t.t.t.t.t.t.t.t.t.t.t.t.",
"t.t.t.t.t.t.t.t.t.t.t.t.)                         _ t.t.t.t.t.t.t.t.t.t.t.t.",
"t.t.t.t.t.t.t.t.t.t.t.X.                            o.t.t.t.t.t.t.t.t.t.t.t.",
"t.t.t.t.t.t.t.t.t.t.4.+   . 9 w ,         > e 8 o   @ 4.t.t.t.t.t.t.t.t.t.t.",
"t.t.t.t.t.t.t.t.t.t.B   # J ^ ^ Q 6     7 ! ^ ^ J $   B t.t.t.t.t.t.t.t.t.t.",
"t.t.t.t.t.t.t.t.t.9.*   A ^ P D ^ U     I ^ D P ^ Z   * 9.t.t.t.t.t.t.t.t.t.",
"t.t.t.t.t.t.t.t.t.=.    S ^ 0   W ~ . . ~ E   q ^ S     -.t.t.t.t.t.t.t.t.t.",
"t.t.t.t.t.t.r.5.t.O.    t ^ Y H ^ K     L ^ H Y ^ r     +.t.5.t.t.t.t.t.t.t.",
"t.t.t.t.t.` @   s {     . G ^ ^ T 2     3 R ^ ^ F .     } i   * [ t.t.t.t.t.",
"t.t.t.w.l         c         1 5 %         % 4 <         x         z e.t.t.t.",
"t.t.e.d           &                                     +           f e.t.t.",
"t.e.g               :                                 ;               h r.t.",
"r.h                 -                                 =                 k t.",
"n     X X             ;                             ;             X X     N ",
",.2.q.t.t.$.@           @                         +           * &.t.t.9.1.1.",
"t.t.t.t.t.t.)             ;                     ;             [ t.t.t.t.t.t.",
"t.t.t.t.t.t.:.            = M X             X N *             3.t.t.t.t.t.t.",
"t.t.t.t.t.t.*.              m O             O n               ;.t.t.t.t.t.t.",
"t.t.t.t.t.t.t.t.8./ X                                   ( 9.t.t.t.t.t.t.t.t.",
"t.t.t.t.t.t.t.t.t.t.V                                 ( t.t.t.t.t.t.t.t.t.t.",
"t.t.t.t.t.t.t.t.t.t.7.                                9.t.t.t.t.t.t.t.t.t.t.",
"t.t.t.t.t.t.t.t.t.t.t.@                             @ t.t.t.t.t.t.t.t.t.t.t.",
"t.t.t.t.t.t.t.t.t.t.t.*                             = t.t.t.t.t.t.t.t.t.t.t.",
"t.t.t.t.t.t.t.t.t.t.t.h                             j t.t.t.t.t.t.t.t.t.t.t.",
"t.t.t.t.t.t.t.t.t.t.t.'                             ] t.t.t.t.t.t.t.t.t.t.t.",
"t.t.t.t.t.t.t.t.t.t.t.%.                            *.t.t.t.t.t.t.t.t.t.t.t.",
"t.t.t.t.t.t.t.t.t.t.t.0.y                         u q.t.t.t.t.t.t.t.t.t.t.t.",
"t.t.t.t.t.t.t.t.t.t.t.t.|                         ..t.t.t.t.t.t.t.t.t.t.t.t.",
"t.t.t.t.t.t.t.t.t.t.t.t.r.v                     b r.t.t.t.t.t.t.t.t.t.t.t.t.",
"t.t.t.t.t.t.t.t.t.t.t.t.t.w.V                 C w.t.t.t.t.t.t.t.t.t.t.t.t.t.",
"t.t.t.t.t.t.t.t.t.t.t.t.t.t.t.>.n =     = m <.t.t.t.t.t.t.t.t.t.t.t.t.t.t.t.",
"t.t.t.t.t.t.t.t.t.t.t.t.t.t.t.t.t.r.6.6.r.t.t.t.t.t.t.t.t.t.t.t.t.t.t.t.t.t.",
"t.t.t.t.t.t.t.t.t.t.t.t.t.t.t.t.t.t.t.t.t.t.t.t.t.t.t.t.t.t.t.t.t.t.t.t.t.t.",
"t.t.t.t.t.t.t.t.t.t.t.t.t.t.t.t.t.t.t.t.t.t.t.t.t.t.t.t.t.t.t.t.t.t.t.t.t.t."
};
