/* XPM */
static char *result[] = {
/* columns rows colors chars-per-pixel */
"32 32 124 2 ",
"   c #EB5757",
".  c #EB5C56",
"X  c #EC6355",
"o  c #ED6B54",
"O  c #EE7252",
"+  c #EF7B50",
"@  c #E97E5B",
"#  c #E55763",
"$  c #E55B63",
"%  c #EF854F",
"&  c #F0874F",
"*  c #F08E4C",
"=  c #EE9F47",
"-  c #ED9F48",
";  c #F19747",
":  c #F1974A",
">  c #F29A4A",
",  c #EF8550",
"<  c #EF9752",
"1  c #EB935D",
"2  c #EA9B5A",
"3  c #F09754",
"4  c #ECA249",
"5  c #EFAA4E",
"6  c #F2A44A",
"7  c #F2AB4B",
"8  c #F2B34B",
"9  c #F1BC4D",
"0  c #EFA255",
"q  c #EEAF52",
"w  c #E6A75E",
"e  c #E8A25A",
"r  c #F0A150",
"t  c #EDB352",
"y  c #DF8976",
"u  c #D2857E",
"i  c #DA867D",
"p  c #DE8979",
"a  c #D09F74",
"s  c #DA927B",
"d  c #E48D66",
"f  c #E38D68",
"g  c #E89466",
"h  c #E69E66",
"j  c #E49174",
"k  c #D4A674",
"l  c #DDA774",
"z  c #D4AB77",
"x  c #DCA875",
"c  c #E9A161",
"v  c #E0AC6A",
"b  c #F2C54C",
"n  c #F2C94C",
"m  c #BD54B1",
"M  c #BC53BD",
"N  c #BC6EAF",
"B  c #BD77AF",
"V  c #BD63B4",
"C  c #BB6DB1",
"Z  c #B365BB",
"A  c #B768BB",
"S  c #A972BF",
"D  c #B37CB4",
"F  c #D95584",
"G  c #C9549E",
"H  c #D17E9E",
"J  c #C76BA6",
"K  c #C67CA6",
"L  c #C478AE",
"P  c #C272B2",
"I  c #9D53DD",
"U  c #9D58DB",
"Y  c #AA5FC7",
"T  c #B452C3",
"R  c #A354D4",
"E  c #A55AD4",
"W  c #9564DE",
"Q  c #AE61C6",
"!  c #B367C3",
"~  c #B56CC1",
"^  c #B164C8",
"/  c #AC60D1",
"(  c #994FE2",
")  c #9A52E1",
"_  c #9A58E1",
"`  c #9364E3",
"'  c #916BE2",
"]  c #7F8FE9",
"[  c #7F90E8",
"{  c #75A4E7",
"}  c #68B2EF",
"|  c #65BEED",
" . c #60BFF0",
".. c #5FCBEE",
"X. c #5FC0F0",
"o. c #56CCF2",
"O. c #5ACBF0",
"+. c #65C7E2",
"@. c #6BC4E1",
"#. c #71C6E2",
"$. c #60C0F0",
"%. c #BCAF98",
"&. c #B9B295",
"*. c #B9B09B",
"=. c #8CBCBF",
"-. c #B5AEAD",
";. c #D18580",
":. c #D7878F",
">. c #C39C8C",
",. c #CB8695",
"<. c #CF9695",
"1. c #CAAE8D",
"2. c #8D9ECC",
"3. c #9286D7",
"4. c #9588D4",
"5. c #8AA6CE",
"6. c #8FBEC8",
"7. c #80B5D1",
"8. c #8584E6",
"9. c #8886E7",
"0. c #81A7E0",
"q. c #82C0CC",
"w. c #89C1D2",
"e. c None",
/* pixels */
"e.e.e.e.e.e.e.e.e.e.e.e.e.e.e.e.e.e.e.e.e.e.e.e.e.e.e.e.e.e.e.e.",
"e.e.e.e.e.e.e.e.e.e.e.e.e.e.( ) ) ) e.e.e.e.e.e.e.> e.e.e.e.e.e.",
"e.e.e.e.e.e.e.e.e.e.e.e.) I A H H A I ) e.e.e.e.e.6 e.e.e.e.e.e.",
"e.e.e.e.e.e.e.e.e.e.e.e.I P 1 : : 1 P I e.e.e.e.6 8 6 e.e.e.e.e.",
"e.e.e.e.e.e.e.g j I ) ) E d > : > > d E ) I E ! 0 b 8 e.e.e.e.e.",
"e.e.e.e.e.I C c c D W ) / > > : : > : ^ ! L s 5 9 b b 7 7 e.e.e.",
"e.e.e.e.i :.h 9 9 v <.B ^ y > : > ; p A ;.- 7 n n n n b 8 6 > e.",
"e.e.e.e.i 2 t b b t e >.Q P < < 3 3 P U 0.w.&.c t n 9 r 6 e.e.e.",
"e.e.e.e.R 4.-.t t %.@.| _ I E E R E I _ $.o.O.@.c n 5 ! e.e.e.e.",
"e.e.e.e.) 9.@.l l +.X.] I R T M M T R ) [ $.o.O.&.8 s E e.e.e.e.",
"e.e.e.e.) ` } *.*.X.8.) m F #   . $ F m I 8.X.o.w.6 L I e.e.e.e.",
"e.e.e.e.) ) ' 2.#.] I G #       + O   # G I ] | { u ! I e.e.e.e.",
"e.e.) I E / E I R ( m #       . : ,     # m ) _ U A ^ E I I e.e.",
"e.e.I P d ; y P R R F         O 6 - X     F R I P y > d P I e.e.",
"e.) A 1 > > ; 3 R T #         * 9 8 O     # T E 3 ; > > 1 A ) e.",
"e.( H : > > > 3 R M     . O * 7 n 9 3 , o   M E 3 > : : : H ( e.",
"e.( H : > > > 3 E M X + : r 9 n n n b 8 > : J E 3 > > > > H ( e.",
"e.( A 1 > > > < E T # o & : 8 9 n b 9 7 * @ V E 3 ; > > 1 A ) e.",
"e.e.I P d > p P ) R F     X o - b 9 & o   F R I P y > d P I e.e.",
"e.e.I I E ^ Z I _ ) m #       % 8 7 o   # m _ _ I E / E I ) e.e.",
"e.e.e.e.) ! ;.0. .[ I G #     o > :   # G I [ X.{ S E ) e.e.e.e.",
"e.e.e.e.I L - w.o. .8.I m F #   * @ F m I 8.$.o.#.a ~ I e.e.e.e.",
"e.e.e.e.E s 8 &.O.o. .[ I R T M J J R ) [ $.o.o.6.4 K I e.e.e.e.",
"e.e.e.e.! 5 n c @.O.o. ._ I E E E E ( ) X.o...q.z 8 h C e.e.e.e.",
"e.e.e.6 r 9 n t c &.w.0.U P 3 3 3 3 P _ { =.k e 9 b 9 r > e.e.e.",
"e.> > 8 n n n n b 8 4 u Z y ; > > > p E ' 5.-.1.q b t r > e.e.e.",
"e.e.e.7 7 b n 9 q p L ! ^ > > > > > : Y I ` 9.3.,.q 2 e.e.e.e.e.",
"e.e.e.e.e.7 n 0 ! E R ) E d > > > > f E ) ( ) _ ! : e.e.e.e.e.e.",
"e.e.e.e.e.7 8 6 e.e.e.e.I P 1 > > g P R e.e.e.e.e.> e.e.e.e.e.e.",
"e.e.e.e.e.e.> e.e.e.e.e.( I A H H A ( ( e.e.e.e.e.e.e.e.e.e.e.e.",
"e.e.e.e.e.e.> e.e.e.e.e.e.e.) ( ( ) e.e.e.e.e.e.e.e.e.e.e.e.e.e.",
"e.e.e.e.e.e.e.e.e.e.e.e.e.e.e.e.e.e.e.e.e.e.e.e.e.e.e.e.e.e.e.e."
};
