/* XPM */
static char *result[] = {
/* columns rows colors chars-per-pixel */
"32 32 56 1 ",
"  c #21AD5D",
". c #22AD5E",
"X c #25AE5F",
"o c #27AE5F",
"O c #25AE60",
"+ c #27AE60",
"@ c #2BAF62",
"# c #2CAF63",
"$ c #2CB165",
"% c #2EB064",
"& c #2DB265",
"* c #34B369",
"= c #38B36A",
"- c #3AB46B",
"; c #3AB46C",
": c #3BB46C",
"> c #3CB56D",
", c #42B973",
"< c #43B973",
"1 c #46BB76",
"2 c #4CBB78",
"3 c #4CBB79",
"4 c #4DBC79",
"5 c #4DBD7A",
"6 c #4DBE7B",
"7 c #4FBE7C",
"8 c #51BF7E",
"9 c #53C080",
"0 c #54C080",
"q c #57C283",
"w c #58C383",
"e c #5CC386",
"r c #5CC486",
"t c #5DC588",
"y c #5EC588",
"u c #5EC689",
"i c #61C78B",
"p c #62C78B",
"a c #65C98E",
"s c #65CA8F",
"d c #67CA90",
"f c #68CA90",
"g c #68CB91",
"h c #69CB91",
"j c #69CC92",
"k c #6ACC92",
"l c #6BCD93",
"z c #6DCE95",
"x c #6ECE96",
"c c #6ECF96",
"v c #6FCF97",
"b c #70CF97",
"n c #70CF98",
"m c #70D098",
"M c #71D099",
"N c None",
/* pixels */
"N+++++++++++++++++++++++++++++oN",
"o=4222222222222222222222222224=+",
"+4MmmmmmmmmmmmmmmmmmmmmmmmmmmM4+",
"+2mvvvvvvnq1xvvvvvvvj,pvvvvvvm2+",
"+2mvvvvvvm3#xvvvvvvvd.rvvvvvvm2+",
"+2mvvvnvvm2@xvvnnvvvd evvnvvvm2+",
"+2mvva8lvm2@xvvqwvvvd evl8svvm2+",
"+2mvvrXfvm2@xvn>>nvvd evfXrvvm2+",
"+2mvve dvm4%xvn--nvvfOrvd evvm2+",
"+2mvve dvvu0cvn--nvvl8svd evvm2+",
"+2mvve dvvvnvvn--nvvvnvvd evvm2+",
"+2mvvr.dvvvvvvn;:nvvvvvvd.rvvm2+",
"+2mvvp<kvvlhvvb66bvvxgzvk,pvvm2+",
"+2mvvvnvvn7*xvvbbvvvg$tvvnvvvm2+",
"+2mvvvvvvm2@xvvvvvvvd evvvvvvm2+",
"+2mvvvvvvm2@xvvvvvvvd evvvvvvm2+",
"+2mvvvvvvm2@xvvvvvvvd evvvvvvm2+",
"+2mvvvvvvm2@xvvvvvvvd evvvvvvm2+",
"+2mvvvnvvn7*xvvbbvvvg&yvvnvvvm2+",
"+2mvvi,kvvlhvvb56bvvxgzvj,pvvm2+",
"+2mvvr.dvvvvvvn;;nvvvvvvd.rvvm2+",
"+2mvve dvvvnvvn--nvvvnvvd evvm2+",
"+2mvve dvvy9cvn--nvvl8svd evvm2+",
"+2mvve dvm4%xvn--nvvfXrvd evvm2+",
"+2mvvrOfvm2@xvn>>nvvd evfOrvvm2+",
"+2mvvs8lvm2@xvvwwvvvd evl8svvm2+",
"+2mvvvnvvm2@xvvnnvvvd evvnvvvm2+",
"+2mvvvvvvm3#xvvvvvvvd.rvvvvvvm2+",
"+2mvvvvvvnq1xvvvvvvvk,pvvvvvvm2+",
"+4MmmmmmmmmmmmmmmmmmmmmmmmmmmM4+",
"o=4222222222222222222222222224=+",
"No+++++++++++++++++++++++++++++N"
};
