/* XPM */
static char *_fd245eefd9f1a207a4374eb4dd439c7[] = {
/* columns rows colors chars-per-pixel */
"125 125 75 1 ",
"  c None",
". c #323232",
"X c gray20",
"o c #343434",
"O c #353535",
"+ c gray21",
"@ c #373737",
"# c gray22",
"$ c #393939",
"% c #3A3A3A",
"& c gray23",
"* c #3C3C3C",
"= c gray24",
"- c #3E3E3E",
"; c #3F3F3F",
": c gray25",
"> c #414141",
", c gray26",
"< c #434343",
"1 c #444444",
"2 c gray27",
"3 c #464646",
"4 c gray28",
"5 c #484848",
"6 c #494949",
"7 c gray29",
"8 c #4B4B4B",
"9 c #4C4C4C",
"0 c gray30",
"q c #4E4E4E",
"w c gray31",
"e c #505050",
"r c #515151",
"t c gray32",
"y c #535353",
"u c gray33",
"i c #555555",
"p c #565656",
"a c gray34",
"s c #585858",
"d c gray35",
"f c #5A5A5A",
"g c #5B5B5B",
"h c gray36",
"j c #5D5D5D",
"k c gray37",
"l c #5F5F5F",
"z c #606060",
"x c gray38",
"c c #626262",
"v c gray39",
"b c #646464",
"n c #656565",
"m c gray40",
"M c #676767",
"N c #686868",
"B c DimGray",
"V c #6A6A6A",
"C c gray42",
"Z c #6C6C6C",
"A c #6D6D6D",
"S c gray43",
"D c #6F6F6F",
"F c gray44",
"G c #717171",
"H c #727272",
"J c gray45",
"K c #747474",
"L c gray46",
"P c #767676",
"I c #777777",
"U c gray47",
"Y c #797979",
"T c gray48",
"R c #7B7B7B",
/* pixels */
"                                                                                                                             ",
"                                                                                                                             ",
"                                                                                                                             ",
"             XXXXXXXXXXXXXXXXXXXXXXXXXXXXXXXXXXXXX                      XXXXXXXXXXXXXXXXXXXXXXXXXXXXXXXXXXXXXXXX             ",
"          XXXXXXXXXXXXXXXXXXXXXXXXXXXXXXXXXXXXXXXXXX                 XXXXXXXXXXXXXXXXXXXXXXXXXXXXXXXXXXXXXXXXXXXXXX          ",
"        XXXXXXXXXXXXXXXXXXXXXXXXXXXXXXXXXXXXXXXXXXXXXX              XXXXXXXXXXXXXXXXXXXXXXXXXXXXXXXXXXXXXXXXXXXXXXXXX        ",
"       XXXXXXXXXXXXXXXXXXXXXXXXXXXXXXXXXXXXXXXXXXXXXXXX           oXXXXXXXXXXXXXXXXXXXXXXXXXXXXXXXXXXXXXXXXXXXXXXXXXXX       ",
"      XXXXXXXXXXXXXXXXXXXXXXXXXXXXXXXXXXXXXXXXXXXXXXXXXX          XXXXXXXXXXXXXXXXXXXXXXXXXXXXXXXXXXXXXXXXXXXXXXXXXXXXX      ",
"     XXXXXXXXXXXXXXXXXXXXXXXXXXXXXXXXXXXXXXXXXXXooXXXXXXX        XXXXXXXXXXXXXXXXXXXXXXXXXXXXXXXXXXXXXXXXXXXXXXXXXXXXXXX     ",
"     XXXXXXXX1akkgkkkkkkkkkkkkkgkkkkkgkkkkkkkkkgtoXXXXXXXX      XXXXXXXX%wgggggggggggggggggggggggggggggggggggga,XXXXXXXX     ",
"    XXXXXXX*BRRRRRRRRRRRRRRRRRRRRRRRRRRRRRRRRRRRRPtXXXXXXX      XXXXXXoaJJPPJPPPJPPPPJPPPPPPPPPPPJPPPJPPPPJPPPJPM%XXXXXXX    ",
"    XXXXXX*JRRRRRRRRRRRPRRPRRRRRRRRRRRRRPRRRRPRRRRRgXXXXXXX    oXXXXXXkPPJJPJJJJJPJJPJJJJJJJJJJJPJJJPJJPJPJPJJJJJJ%XXXXXX    ",
"    XXXXXXBRRRRPRPRRRRRRPRPRRRPRPRRPRRRPRPPRRPRRRRRP1XXXXXX    XXXXXXwJJJJJJJJJJJJJJJZJJJJJJZJJJJJJJJJZJJJJJJJJJJJvoXXXXX    ",
"   XXXXXX1PPPPRPRPPPPPPPRPRPPPRPPPPRPPRPPRRPRPPPPPRPMXXXXXX    XXXXXXMZJZJZZJZZJJZJJZJZJJZJJZJJZZJZZJJJZZJZJZJJZZJZ,XXXXXo   ",
"   XXXXXXaPPRPPPPPRPPPRPPPPPPRPPRPPPPRPPPPRPPPPRRPPPPoXXXXX    XXXXX%ZJZZJJZZJJZZJZZZZZJZZJZZJZJZJJZZZZZZZJZZJZZJZZtXXXXXX   ",
"   XXXXXXgPPPPPPPPPPPPPPPPPPPPPPPPPPPPPPPPPPPPPPPPPPP%XXXXX    XXXXX,ZZZZZZZZZZZZZZZZJZZZZZZZZZZZZZZJZZJZZZZZZZZZZZaXXXXXX   ",
"   XXXXXXkPPPPPPPPPPPPPPPPPPPPPPPPPPPPPPPPPPPPPPPPPPP*XXXXX   oXXXXX,BBZBZZBBZBZZZBBBZZBZZBBBZZBZBBBZZBZBZBZZBBBZZBaXXXXXX   ",
"   XXXXXXgPPPJPPPJPPJPJPPPJPJPPPJPPPJPPJJPPPJPPJJPJPP*XXXXX   oXXXXX,BBBBBBBBMBBBBBBBBBBBBBBBBBBBBBBBBBBBMBBBBBBBBBaXXXXXX   ",
"   XXXXXXgJJJJPJJJPJJJJPJJJJJPJJJPJJJPJJJPJJJPJJJJJPJ%XXXXX   oXXXXX*BMMMMBBMMMMBMMMBBMMBMMMBBMMBMBMMMBBMMMMBMBMBMMtXXXXXX   ",
"   XXXXXXgJJJJJJJJJJJJJJJJJJJJJJJJJJJJJJJJJJJJJJJJJJP%XXXXX   oXXXXX,MMMMMMMMMMMMMMMMMvMMMMMMMvMMMMMMMMMMMMMMMMMMMMtXXXXXX   ",
"   XXXXXXgJJJJZJJJJJJJJJJZJJJJZJJJJJJZJJJJJJJZJJJJJJZ*XXXXX   oXXXXX*vvvvvvvvMvMvvvvvvMvvvvvvvMvvvvvvvvvvMvvvvvvvvvtXXXXXX   ",
"   XXXXXXgZJZJJJJZJJJZZJJJJJZJJJZJJZJJJJZJJZJJJJZJJJJ%XXXXX   oXXXXX*vvvvvvvvvkvvvvvvvvvvvvvvvvvvvvvvvvvkvvvvvvvvvvwXXXXXX   ",
"   XXXXXXaJJJZZJZJJZJZJZZJJJJZZJJJJZZJJJJJJZZJJJJZJZZ%oXXXX   oXXXXX*vvvvvkvkvvvvkvkvkvvvkvkvkvvkvvvvvkvvvvvkvvvkvvwXXXXXX   ",
"   XXXXXXgZZZJJZJZZJZJZJJZZZZJJZZZZJJZZZZZZJJZZZZJZJJ%XXXXX   oXXXXX*vkkkkkkkkkkkvkkkkkkkvkkkkkkkkkkkkkkkkkkkkkkkkkwXXXXXX   ",
"   XXXXXXgZZZJZJZZJZZJZJZZJZZJZJZZJZZJZZJZZJZZJZJZZJZ*XXXXX   oXXXXX*kgkkkgggkkgkkgkkgkkkgkkgkkgkkgkgkkgkkgkgkkgkkk5XXXXXX   ",
"   XXXXXXaZZZZZZZZZZZZZZZZZZZZZZJZZZZZZZZZZZJZZZZZZZZ%XXXXX   oXXXXX*ggggggggggggggggggggggggggggggggggggggggggggggwXXXXXX   ",
"   XXXXXXaZZZZZZZZZZZZZZZZZZZZZZBZZZZZZZZZZZBZZZZZZZZ*XXXXX   oXXXXX*gggggggggggggggggggggggggggggggggggggggggggggg5XXXXXX   ",
"   XXXXXXaZZZZBZZBZZZZBZBZZZZZBZZZBZZZZZBZZZZZBZZBBZZ%XXXXX   oXXXXX*gaaaagaaaaaaaaaaaaaaaaaaaaaaaaaaaaaaaaaaaaaagg5XXXXXX   ",
"   XXXXXXaBBBZBBBBBBBBBBBZBBBBBBZBBBBBZBBBBBZBBBBBZBB%oXXXX   oXXXXX%aaaaaataaaaaaaaaaatataataaaaaataaaaaaataaaaata1ooXXXX   ",
"   XXXXXXtBBBBBBBBBBBBBBBBBBBBBBBBBBBBBBBBBBBBBBBBBBB%XXXXX   oXXXXX%atatatatatatatatataaaataataataaattaataaattataa5XXXXXX   ",
"   XXXXXXaMMBBMBBBMBBBMBBBMBBBMBBBBMBMBBMBMBBBBMBMBBM%XXXXX   oXXXXX%atttttatttttttttttattttttttttttttttttttttttttt5XXXXXX   ",
"   XXXXXXtMBBMBMBBBMBBBMBMBMBBBMBMMBMBMBBMBMBMMBMBMBB%XXXXX    XXXXX%wwttttwttttttwttttwtttwtttwtwtttttttwttttttttt1XXXXXX   ",
"   XXXXXXtMMMMMMMMMMMMMMMMMMMMMMMMMMMMMMMMMMMMMMMMMMM%XXXXX    XXXXXotwwwwwwwwwwwwwwwwwwwwwwwwwwwwwwwwwwwwwwwwwwwwt*XXXXXX   ",
"   XXXXXXtMMvMMMMMMMMMMMvMMMvMMMMMMMvMMMMMMMMvMMvMMMM%XXXXX    XXXXXX5wwwwwwwwwwwwwwwwwwwwwwwwwwwwwwwwwwwwwwwwwwwww%XXXXXX   ",
"   XXXXXXtMvMvMvvvMvvvMvMvMvMvMvvvMMvMvvMvMvvvMMvMvvv%XXXXX    XXXXXX*wwwwwwwwwwwwwwwwwwwwwwwwwwwwwwwwwwwwwwwwwwww1oXXXXX    ",
"   XXXXXXtvMvvvvMvvvMvvvvvvMvvvvvMvvvvMvvvvvvMvvvvMvM%XXXXX    oXXXXXX,wwwwwwwwwwwwwwwwwwwwwwwwwwwwwwwwwwwwwwwwwt5oXXXXXX    ",
"   XXXXXXtvvvvvvvvvvvvvvvvvvvvvvvvvvvvvvvvvvvvvvvvvvvoXXXXX     XXXXXXo*wwtwwwwwwwwwwwwwwwwwwwwwwwwwwwwwwwwwwwwt1ooXXXXXX    ",
"   XXXXXXwvvvvvvvvvkkvvvvvvvvvvvvvvvvvvvvvvvkvvvvvvvv%XXXXX     XXXXXooXX%*,,,,,,,,,,,,,,,,,,,,,,,,,,,,,,,,,,**oXXXXXXXX     ",
"   XXXXXXwkvvkvkvvvkvvkvkvkvvkvkkvvkvkkvvkvvvkkvkvkvvooXXXX      XXXXXXXXXXXXXXXXXXXXXXXXXXXXXXXXXXXXXXXXXXXXXXXXXXXXXXX     ",
"   XXXXXXwkkkvkvkkvkkvkvkvkkkvkvkkkvkvkkvkkkkvvkvkvkk%oXXXX       XXXXXXXXXXXXXXXXXXXXXXXXXXXXXXXXXXXXXXXXXXXXXXXXXXXXX      ",
"   XXXXXXwkkkkkkkkkkkkvkkkkkvkkkvkkkkkvkkkkvkkvkkkkkk%XXXXX        XXXXXXXXXXXXXXXXXXXXXXXXXXXXXXXXXXXXXXXXXXXXXXXXXXo       ",
"   XXXXXXwkkkkkkkkkkkkkkkkkkkkkkkkkkkkkkkkkkkkkkkkkkk%XXXXX         XXXXXXXXXXXXXXXXXXXXXXXXXXXXXXXXXXXXXXXXXXXXXXXX         ",
"   XXXXXowkgkkkkkkgkkkkgkkgkkkkkgkkkkgkggkgkkgkgkkkkk%XXXXX           XXXXXXXXXXXXXXXXXXXXXXXXXXXXXXXXXXXXXXXXXXXXo          ",
"   XXXXXo5ggkggggkgkggkggkgggggggkggkggggkggkgggkggkkoXXXXX              XXXXXXXXXXXXXXX...XXXXXXXXX....XXXXXX..             ",
"   XXXXXX5kggggggggggggggggggggggggggggggggggggggggggooXXXX                                                                  ",
"   XXXXXXwggggagggagggagggaggggaggggagggggggagggggagkoooXXX                                                                  ",
"   XXXXXX5aggagggaggggggggggaggggggggggggggggggggggggoXXXXX                                                                  ",
"   XXXXXX5ggagagagagaagaagaagagaagaaagaaagaaagaaaagag%XXXXX            XXXXXXXXXXXXXXXXXXXXXXXXXXXXXXXXXXXXXXXXXX            ",
"   XXXXXX5aaaaagaaagaaaaagaaaaaggaaaaaaaaaaaagaaaagaaooXXXX          XXXXXXXXXXXXXXXXXXXXXXXXXXXXXXXXXXXXXXXXXXXXXXX         ",
"   XXXXXo5aaaaaaaaaaaaaaaaaaaaaaaaaaaaaaaaaaaaaaaaaag%oXXXX        XXXXXXXXXXXXXXXXXXXXXXXXXXXXXXXXXXXXXXXXXXXXXXXXXX        ",
"   XXXXXo5aaaaaaaaaaaaaataaaaaaaaaaaaaaaaaaaaaaaaaaaaoXXXXX       XXXXXXXXXXXXXXXXXXXXXXXXXXXXXXXXXXXXXXXXXXXXXXXXXXXX       ",
"   XXXXXo5aattattataattaaaattataattaataataatattaatataoXXXXX      XXXXXXXXXXXXXXXXXXXXXXXXXXXXXXXXXXXXXXXXXXXXXXXXXXXXXX      ",
"   XXXXXX5atatattatttaattttataattattatatttattattttataoXXXXX      XXXXXooXXoXXXXXXXXXXXXoXXXXXXXoXXXXXXoXXXXXXXXXXXXXXXXX     ",
"   XXXXXX1ttttattttatttttatttttttttattttattttttaatttt%XXXXX     XXXXXXXo5MZJJJJJJJJJJJJZJJJJJJJZJJJJJJZJJJZJJJBa%oXXXXXX     ",
"   XXXXXX1ttttttttttttttttttttttttttttttttttttttttttt%XXXXX     XXXXXX%BRRRRRRRRRRRRRRRRRRRRRRRRRRRRRRRRRRRRRRRRP5XXXXXXX    ",
"   XXXXXo1ttwttwttwttttttwttttwtttwtwttwttttttwtwttwtoXXXXX    XXXXoooZRRRRRRRRPRRPRRPRRRRPRRPRRRRRPPRRRRRRRRPRRRR1XXXXXX    ",
"   XXXXXo1twwtwwwwtwwtwwtwwtwwtwwwwtwwtwwtwwtwwtwtwwt%XXXXX    XXXXXXgRPRPRPPRPRPRRRPRPRPRRRRPRRRPRPPRPRPRRRPRPRRRZoooXXXX   ",
"   XXXXXo1wwwwwwwwwwwwwwwwwwwwwwwwwwwwwwwwwwwwwwwwwwwoXXXXX    XXXXXXJRPPRPRPRPRRPPRPRPPRPPPRPPPPRPRPRPRRPPRPRPPPPR1XoXXXX   ",
"   XXXXXo1wwwwwwwwwwwwwwwwwwwwwwwwwwwwwwwwwwwwwwwwwwwoXXXXX    XXXXX*RPPPRPPRPPPPPPPPPRPRPPPPPPRPRPPRPPPPPPPPPRPPRPaXXXXXX   ",
"   XXXXXo1wwwwwwwwwwwwwwwwwwwwwwwwwwwwwwwwwwwwwwwwwww%XXXXX    XXXXX,PPPPPPPPPPPPPPPPPPPPPPPPPPPPPPPPPPPPPPPPPPPPPPkXXXXXX   ",
"   XXXXXX1wwwwwwwwwwwwwwwwwwwwwwwwwwwwwwwwwwwwwwwwwwwooXXXX   oXXXXX,PPPJPJPPJPPPPPPPPJPPJPPPPPPJPJPPJPPPPPPPPJPPJPgXXXXXX   ",
"   XXXXXX1wwwwwwwwwwwwwwwwwwwwwwwwwwwwwwwwwwwwwwwwwww%ooXXX   oXXXXX,JJJJPJJPJJJJJJJJPJJPJJJJJJJJPJJPJJJJJJJJPJJJJJgXXXXXX   ",
"   XXXXXX1wwwwwwwwwwwwwwwwwwwwwwwwwwwwwwwwwwwwwwwwwwwoXXXXX   oXXXXX,PPJJJJJJJJJJJPJJJJJJJJJJJPJJJJJJJJJJJPJJJJJJJJgXXXXXX   ",
"   XXXXXX1wwwwwwwwwwwwwwwwwwwwwwwwwwwwwwwwwwwwwwwwwwtoXXXXX   oXXXXX,JZJJJJJJJZJJJZJJJJJJJZJJJZJJJJJJJZJJJZJJJJJJJJgXXXXXX   ",
"   XXXXXX1wwwwwwwwwwwwwwwwwwwwwwwwwwwwwwwwwwwwwwwwwwwoooXXX   oXXXXX,JJJJZJJZJJJJJJJJZJJZJJJJJJJJZJJZJJJJJJJJZJJZJJgXXXXXX   ",
"   XXXXXX1wwwwwwwwwwwwwwwwwwwwwwwwwwwwwwwwwwwwwwwwwwwoXoXXX   oXXXXX,JJZJJJJJJJJZJJZJJJJJJJJZJJZJJJJJJJJZJJZJJJJJJZgXXXXXX   ",
"   XXXXXX,wwwwwwwwwwwwwwwwwwwwwwwwwwwwwwwwwwwwwwwwwwwoXXXXX   oXXXXX,JZJZJJJZZJZZJZJZJJJZZJZZJZJZJJJZZJZZJZJZJJJZZJgXXXXXX   ",
"   XXXXXX%wwwwwwwwwwwwwwwwwwwwwwwwwwwwwwwwwwwwwwwwww5XXXXXX   oXXXXX,ZJZJZZZZJZJJZJZJZZZZJZJJZJZJZZZZJZJJZJZJZZZZJZgXXXXXX   ",
"   XXXXXXo5wwwwwwwwwwwwwwwwwwwwwwwwwwwwwwwwwwwwwwwwt*ooXXXX   oXXXXX,ZZJJZZJJZJZZZJZZZJZJZJZZJZZJZZJZZJZZZJZZZJZZJZaXXXXXX   ",
"    XXXXXX*twwwwwwwwwwwwwwwwwwwwwwwwwwwwwwwwwwwwwww5ooXXXXX   oXXXXX,ZZZZZZZZZZZZZZZJZZZZZZZZZZZZZZZZZZZZZZZJZZZZZZaXXXXXX   ",
"    XXXXXXo*wwtwwwwwwwwtwwtwwtwwwwwtwwwwwwwwwwwtww1oXXXXXX    oXXXXX,ZZZZZZZBZZZZZZZBZZZBZZZZZZZZZZZZZZZZZZZBZZZZZZaXXXXXX   ",
"     XXXXXooo*555w5w5w55w55w55w55w55w5w55w5w5w551%XXXXXXXX    oXXXXX,ZZBBZZBZZZZZZZZZZBZZZZBZZZZBZZZZZZZZZZZZZBZZZBaXXXXXX   ",
"     XXXXXXXXXXXXXXXXXXXXXXXXXXXXXXXXXXXXXXXXXXXXXXXXXXXX     oXXXXX,BBBBBBZBBBBBBBBBBBBBBBBBZBBBBBBZBBBZBBBBBBBBBBaXXXXXX   ",
"      XXXXXXXXXXXXXXXXXXXXXXXXXXXXXXXXXXXXXXXXXXXXXXXXXXX     oXXXXX,BBBBBBBBBBBBBBBBBBMBBBBBBBBBBBBBBBBBBBBBBBBBBBaXXXXXX   ",
"       XXXXXXXXXXXXXXXXXXXXXXXXXXXXXXXXXXXXXXXXXXXXXXXXX      oXXXXX,BMMBMBBMMMMBBMBBBMMBMBMBMBBMMMMBMBMBBBMBBMMMMMtXXXXXX   ",
"        XXXXXXXXXXXXXXXXXXXXXXXXXXXXXXXXXXXXXXXXXXXXXXo       oXXXXX*MMMMMMMMMMMMBMMMBMMBMMMMMMBMMMMBMMMMMMMMMMMMMMaXXXXXX   ",
"          XXXXXXXXXXXXXXXXXXXXXXXXXXXXXXXXXXXXXXXXXXX         oXXXXX*MMMMMMMvMMMMMMMMMMMMMMMMMMMMMMMMMMMMMMMMvMMMMMtXXXXXX   ",
"            XXXXXXXXXXXXXXXXXXXXXXXXXXXXXXXXXXXXXXX           oXXXXX*MvMMvMvMvMvMvvvvMvMvMvvMvvvvMvMvMvvMvvvMvvMMvvtXXXXXX   ",
"                                                              oXXXXX,MvvvvMMvvMMvMMvMvMMvMvMvMMvMvMMvMvMvMMvMMMvvvMtXXXXXX   ",
"                                                              oXXXXX*MvMvMvvvMvvvvMvvvvvvvMvvvMvvvvvvvMvvvMvvvvvvMvtXXXXXX   ",
"                                                              oXXXXX*vvvvvvvvvvvvvvvvvvvvvvvvvvvvvvvvvvvvvvvvvvvvvvtXXXXXX   ",
"             XoXXXXXXXXXXXXXXXXXXXXXXXXXXXXXXXXXX             oXXXXX,kvvvvvvkvvvvvvvvvvvkvvvvvvkvvkvvvkvvvvvvvvvkvvtXXXXXX   ",
"          XXXXXXXXXXXXXXXXXXXXXXXXXXXXXXXXXXXXXXXXXX          oXXXoX*vvvkvvkvkkvvkkvvkvkvvvvvvvkvvkvkvkvvkkvvkvkvkkwXXXXXX   ",
"        oXXXXXXXXXXXXXXXXXXXXXXXXXXXXXXXXXXXXXXXXXXXXX        oXXXoo*kkkkkvkkvvkkvkkkvkvkkkkkkvkkkvkkvkvkvkkkvkvkvvwXXXXXX   ",
"       XXXXXXXXXXXXXXXXXXXXXXXXXXXXXXXXXXXXXXXXXXXXXXXX       oXXXXX,kkvkvkkkkvkkvkkkkkkkkkkkkkvkkkvkvkkkvkkkkkkkkvwXXXXXX   ",
"      oXXXXXXXXXXXXXXXXXXXXXXXXXXXXXXXXXXXXXXXXXXXXXXXXX      oXXXXX*kkkkkkkkkkkkkkkkkkkkkkkkkkkkkkkkkkkkkkkkkkkkkgwXXXXXX   ",
"     XXXXXXXXXXXXXXoXXXXXXXXXXXXoXXXXXXXXXXoXXXXXXXXXXXXX     oXXXXX*kkkkkkkkgkggkgkkkkkkkkkgkgkkkkkkgkggkgkkkkkgkk5XXXXXX   ",
"     XXXXXXXX%wttttttatttttattttttttattttttttatt1oXXXXXXXX    oXXXXX*gggggggkggggkgkkgggkggkgkggggggkggggkgkkggggkgwXXXXXX   ",
"    XXXXXXX%kPPPPPPPPPPPPPPPPPPPPPPPPPPPPPPPPPPPPZ1ooXXXXX    oXXXXX*kggggggggggggggggggggggggggggggggggggggggggggg5oXXXXX   ",
"    XXXXXXoZPJJJPJJJJJJJJPJJPJPJJJJJPJJJJPJJJJJJPPJwXXXXXXX   oXXXXX*gggagggagggggggggggggagggagagggaggggggggggggggwoXXXXX   ",
"    XXXXXXvJJJJJJJJJJJJJJJJJJJJJJJJJJJJJJJJJJJJJJJJJ,XXXXXX   oXXXXX%gaggggaggagaagaaagaaggggagagggaggagaagaaagagga5XXXXXX   ",
"   XXXXXX,ZZZJZJJZJZJZJJZJZJZZJZJJZZZJZJJZJZJZJZZJZJgXXXXXX   oXXXXX%aaaaaaaaaaagaaagaaaaaaaagaaaaaaaaaagaaagaaaaaa5XXXXXX   ",
"   XXXXXXtZJZJZJZJZZJZJZZJZJJZJZJZJJZJZJZJZJJZJJZJZJZXXXXXX   oXXXXX*aaaaaaaaaaaaaaaaaaaaaaaaaaaaaaaaaaaaaaaaaaaaag5XXXXXX   ",
"   XXXXXXtZZZZZZZZZZZZZZZZZZZZZZZZZZZZZZZZZZZZZZZZZZZ%XXXXX   oXXXXX*gaaaaaaaaaaaaaaaaaaaaaaaaaaaaaaaaaaaaaaaaaaaaa5XXXXXX   ",
"   XXXXXXaZZZZZBZZZZZZBZZZBZZZZZZBZBZZZZBZBZZBZBZZZZB%XXXXX   oXXXXX%aaaaataaaataaaaaaaataaaaaaaaataaaataaaaaaaaaaa1XXXXXX   ",
"   XXXXXXaBBBBBBBBBBBBBBBBBBBBBBBBBBBBBBBBBBBBBBBBBBB%XXXXX   oXXXXo%tatataaataattattatataatatatataaataattattatataa5XXXXXX   ",
"   XXXXXXaMMMMMMMMMMMBMMMMMMMMBMMMMMMMMMMMMMMMMMMMMMM%XXXXX   oXXXXX%atttaatatatatttattatttatattttatatttattatttaatt1ooXXXX   ",
"   XXXXXXtMMMMMMMMMMMMMMMMMMMMMMMMMMMMMMMMMMMMMMMMMMM%XXXXX   oXXXXX%ttattttttatttattttttatttttaatttttattttttatttta1XoXXXX   ",
"   XXXXXXwvMMvvvvvMvvvvMMvvvvvvvvMvvvMvvvvvMMvvvvvMvv%XXXXX   oXXXXX%tttttttttttttttttttttttttttttttttttttttttttttt5XXXXXX   ",
"   XXXXXXtvvvvvvvvvvvvvvvvvvvvvvvvvvvvvvvvvvvvvvvvvvv%XXXXX   oXXXXX%ttttttwwttwtwttttttwtttttwttttttwttttttwtttttt1XXXXXX   ",
"   XXXXXXwkvkkvvvvkvvvkvkvvkvvvvvkvvkvvvvkkvkkvvvvkvv%XXXXX   oXXXXX%twwtwwtwtwwwwtwtwwtwtwwtwwtwwwtwwtwtwwtwtwwtww1XXXXXX   ",
"   XXXXXXwkkkvkkkkkkkkkkkkkkkkkkkkkkkkkkkvkkkvkkkkkkk%XXXXX   oXXXXX%wwwwwwwwwwwwwwwwwwwwwwwwwwwwwwwwwwwwwwwwwwwwww1XXXXXX   ",
"   XXXXXXwkkkkkgkkkkkgkkkkgkkkkkkkkkkkkkkkkkkkkgkkkkg%XXXXX   oXXXXX%wwwwwwwwwwwwwwwwwwwwwwwwwwwwwwwwwwwwwwwwwwwwww1XXXXXX   ",
"   XXXXXo5ggggkgggggkggggkgkggggkgggggggggggggkgggggg%XXXXX   oXXXXX%wwwwwwwwwwwwwwwwwwwwwwwwwwwwwwwwwwwwwwwwwwwwww1XXXXXX   ",
"   XXXXXo5gggggagggggagggggggggggggggggggggggggagggggoXXXXX   oXXXXX%wwwwwwwwwwwwwwwwwwwwwwwwwwwwwwwwwwwwwwwwwwwwww1XXXXXX   ",
"   XXXXXXwagaaaaaaaaaaaaaaaaaaagaaaaaaagaaaaaaaaaaaagoXXXXX   oXXXXX%wwwwwwwwwwwwwwwwwwwwwwwwwwwwwwwwwwwwwwwwwwwwww,XXXXXX   ",
"   XXXXXX5gaaaaaaaaaaaaaaaaaaaaaaaaaaaaaaaaaaaaaaaaaa%XXXXX   oXXXXX%wwwwwwwwwwwwwwwwwwwwwwwwwwwwwwwwwwwwwwwwwwwwwt1XXXXXX   ",
"   XXXXXX1atataaaataaatataatattataatattaataaataaaataaoXXXXX   oXXXXX%wwwwwwwwwwwwwwwwwwwwwwwwwwwwwwwwwwwwwwwwwwwwww1XXXXXX   ",
"   XXXXXo1tttttattttttttttttttatttttttattttttttattatt%XXXXX   oXXXXX%wwwwwwwwwwwwwwwwwwwwwwwwwwwwwwwwwwwwwwwwwwwwww1XXXXXX   ",
"   XXXXXo1tttwtwttttttttttttwtwtttttwtwttttttwtwwtwttoXXXXX    XXXXX%wwwwwwwwwwwwwwwwwwwwwwwwwwwwwwwwwwwwwwwwwwwwww,XXXXXX   ",
"   XXXXXX,wtwtwwtwwwwttwwwwtwtwtwwwtwtwtwwwtwtwwwtwtwoXXXXX    XXXXXotwwwwwwwwwwwwwwwwwwwwwwwwwwwwwwwwwwwwwwwwwwwww,XXXXXX   ",
"   XXXXXX%wwwwwwwwwwwwwwwwwwwwwwwwwwwwwwwwwwwwwwwwwt1XXXXXX    XXXXXo5wwwwwwwwwwwwwwwwwwwwwwwwwwwwwwwwwwwwwwwwwwwww%XXXXXo   ",
"    XXXXXX5wwwwwwwwwwwwwwwwwwwwwwwwwwwwwwwwwwwwwwwww%XXXXXX    XXXXXX*wwwwwwwwwwwwwwwwwwwwwwwwwwwwwwwwwwwwwwwwwwww5oXXXXX    ",
"    XXXXXXowwwwwwwwwwwwwwwwwwwwwwwwwwwwwwwwwwwwwwww,XXXXXXX    XXXXXXX1wwwwwwwwwwwwwwwwwwwwwwwwwwwwwwwwwwwwwwwwwt5oXXXXXX    ",
"    XXXXXXoo5wwwwwwwwtwwtwwtwwwwwwwwwtwwtwwtwwwwww,XXXXXXX      XXXXXXo,twwtwwwwwwwwwtwwtwwtwwwwwwwwwtwwtwwtwtww1%XXXXXXX    ",
"     XXXXXoXX%,,,1,1,,1,,,,,,,,1,1,1,,1,,,,,,,,1*oXXXXXXXX      XXXXXXXXo*,,,1,1,1,1,,1,,,,,,,,1,,,1,,1,,,,,,,,%ooXXXXXX     ",
"     oXXXXXXXXXXXXXXXXXXXXXXXXXXXXXXXXXXXXXXXXXXXXXXXXXXX        XXXXXXXXXXXXXXXXXXXXXXXXXXXXXXXXXXXXXXXXXXXXXXXXXXXXXXX     ",
"      XXXXXXXXXXXXXXXXXXXXXXXXXXXXXXXXXXXXXXXXXXXXXXXXXX          XXXXXXXXXXXXXXXXXXXXXXXXXXXXXXXXXXXXXXXXXXXXXXXXXXXXo      ",
"       XXXXXXXXXXXXXXXXXXXXXXXXXXXXXXXXXXXXXXXXXXXXXXXX           oXXXXXXXXXXXXXXXXXXXXXXXXXXXXXXXXXXXXXXXXXXXXXXXXXXo       ",
"        oXXXXXXXXXXXXXXXXXXXXXXXXXXXXXXXXXXXXXXXXXXXXX              XXXXXXXXXXXXXXXXXXXXXXXXXXXXXXXXXXXXXXXXXXXXXXXXX        ",
"          XXXXXXXXXXXXXXXXXXXXXXXXXXXXXXXXXXXXXXXXXX                 XXXXXXXXXXXXXXXXXXXXXXXXXXXXXXXXXXXXXXXXXXXXXX          ",
"             oXXXXXXXXXXXXXXXXXXXXXXXXXXXXXXXXXXXX                      oXXXXXXXXXXXXXXXXXXXXXXXXXXXXXXXXXXXXXXo             ",
"                                                                                                                             ",
"                                                                                                                             ",
"                                                                                                                             "
};
