/* XPM */
static char *result[] = {
/* columns rows colors chars-per-pixel */
"32 32 122 2 ",
"   c #D4867D",
".  c #D19578",
"X  c #2B7FED",
"o  c #347DEC",
"O  c #357DEC",
"+  c #347EEC",
"@  c #3A7CEB",
"#  c #4E73E9",
"$  c #4A75E9",
"%  c #656CE8",
"&  c #7263E6",
"*  c #7966E5",
"=  c #6E75E8",
"-  c #BF78B8",
";  c #C67BA2",
":  c #C27CAE",
">  c #977FC9",
",  c #9F79D6",
"<  c #A472C8",
"1  c #B07CC5",
"2  c #B87EC4",
"3  c #B770D1",
"4  c #8F57E1",
"5  c #8A5AE3",
"6  c #8F5BE3",
"7  c #9653E1",
"8  c #9257E2",
"9  c #9852E0",
"0  c #9A52E0",
"q  c #9854E1",
"w  c #905AE2",
"e  c #8462E4",
"r  c #2D81E9",
"t  c #2F80ED",
"y  c #3884E3",
"u  c #7394CE",
"i  c #7685D9",
"p  c #6B91D0",
"a  c #7794D0",
"s  c #578AE0",
"d  c #5A80EB",
"f  c #7193EE",
"g  c #6F9CF0",
"h  c #799DF0",
"j  c #7A9DF0",
"k  c #799EF0",
"l  c #7AA1F0",
"z  c #BCB592",
"x  c #BDB592",
"c  c #B8B39D",
"v  c #899CBD",
"b  c #A6ADA1",
"n  c #A8AEA1",
"m  c #A0A9AB",
"M  c #B5B6B1",
"N  c #D08795",
"B  c #C9A684",
"V  c #C5B793",
"C  c #C4B39A",
"Z  c #D0C395",
"A  c #D2CA9A",
"S  c #DBCC9C",
"D  c #DFD19D",
"F  c #E1CB8C",
"G  c #E3D7A7",
"H  c #EBDDB2",
"J  c #F6E1AF",
"K  c #F0E0B3",
"L  c #F5E1B3",
"P  c #F4E2B2",
"I  c #F8E8B8",
"U  c #809AC2",
"Y  c #A480C2",
"T  c #A289C2",
"R  c #A288C3",
"E  c #A18AC3",
"W  c #AD82DD",
"Q  c #B081D5",
"!  c #ABBCC5",
"~  c #BA96E1",
"^  c #C993C1",
"/  c #CA97D5",
"(  c #D9B9D6",
")  c #BECEF6",
"_  c #B9CFF8",
"`  c #EACED3",
"'  c #E2C6DE",
"]  c #F5E6C1",
"[  c #F9ECC5",
"{  c #F7EBCC",
"}  c #F9ECCD",
"|  c #FAEFCC",
" . c #FAEFD3",
".. c #FBF0D4",
"X. c #EEDDE3",
"o. c #F4E7ED",
"O. c #FCF5E3",
"+. c #FCF6E3",
"@. c #FEF8E8",
"#. c #FEF9EC",
"$. c #FDF8EE",
"%. c #FCF8EF",
"&. c #FEF9EE",
"*. c #FEFAEF",
"=. c #F6EDF3",
"-. c #EEF3FD",
";. c #F9F1F3",
":. c #F9F3F6",
">. c #FCF9F1",
",. c #FDFAF3",
"<. c #FEFCF3",
"1. c #F0F4FD",
"2. c #FEFDF8",
"3. c #FFFDF8",
"4. c #FFFEFA",
"5. c #FDFBFE",
"6. c #FFFEFC",
"7. c #FFFFFD",
"8. c #FDFCFE",
"9. c #FFFFFE",
"0. c white",
"q. c None",
/* pixels */
"q.q.q.q.q.q.q.q.q.q.q.q.q.q.q.q.q.q.q.q.q.q.q.q.q.q.q.q.q.q.q.q.",
"q.q.q.q.q.q.q.q.O q.q.q.q.q.q.q.q.q.q.q.q.q.q.q.q.q.q.q.q.q.q.q.",
"q.q.q.q.q.q.q.q.+ o q.q.q.q.q.q.q.q.q.q.q.q.q.q.q.q.q.q.q.q.q.q.",
"q.q.q.q.q.q.q.q.# $ q.q.q.q.q.q.q.q.q.q.q.q.q.q.q.q.q.q.q.q.q.q.",
"q.q.q.q.q.q.q.@ & % q.q.q.q.q.q.q.q.q.q.q.q.q.q.q.q.q.q.q.q.q.q.",
"q.q.q.q.q.q.q.@ 4 * q.q.q.q.q.q.q.q.q.q.q.q.q.q.q.q.q.q.q.q.q.q.",
"q.q.q.q.q.q.q.d 0 e g q.q.q.q.q.q.q.q.q.q.q.q.q.q.q.q.q.q.q.q.q.",
"q.q.q.q.q.0._ = q 5 f -.q.q.q.q.q.q.q.q.q.q.q.q.q.q.q.q.q.q.q.q.",
"q.q.q.q.0.0.) k j h l 1.0.0.q.q.q.q.q.q.q.q.q.q.q.q.q.q.q.q.q.q.",
"q.q.q.0.0.0.0.0.0.0.0.0.0.0.q.q.q.q.q.q.q.q.q.q.q.q.q.q.q.q.q.q.",
"q.q.q.0.O.L L +.0.3.{ J ] <.0.q.q.q.q.q.q.q.q.q.q.q.q.q.q.q.q.q.",
"q.q.q.&.F U U F #.} c a m P 4.q.q.q.q.q.q.q.q.q.q.q.q.q.q.q.q.q.",
"q.q.0.[ b X X n I G u t s A @.q.q.q.q.q.q.q.q.q.q.q.q.q.q.q.q.q.",
"q.q.0...z y y x | H v r p D *.0.0.0.0.0.0.0.0.0.q.q.q.q.q.q.q.q.",
"q.q.0.2.K V V K 2.O.S C Z  .9.0.0.0.0.0.0.0.0.0.0.q.q.q.q.q.q.q.",
"q.q.0.0.2.%.%.2.0.7.,.$.>.6.0.0.0.0.0.0.0.0.0.0.0.0.q.q.q.q.q.q.",
"q.q.0.0.0.0.0.0.0.0.0.0.0.0.0.0.0.0.0.0.0.0.0.0.0.0.0.q.q.q.q.q.",
"q.q.0.0.0.0.0.0.0.0.0.0.0.0.0.0.0.0.0.0.0.0.0.0.0.0.0.q.q.q.q.q.",
"q.q.0.0.0.0.0.0.0.0.0.0.0.0.0.0.0.0.0.0.0.0.0.0.0.0.;.q.q.q.q.q.",
"q.q.0.0.0.0.0.0.0.0.0.0.0.0.0.0.0.0.0.0.0.0.0.0.0.0.` N q.q.q.q.",
"q.q.0.0.0.0.0.0.0.0.0.0.0.0.0.0.0.0.0.0.0.0.0.0.0.0.( - q.q.q.q.",
"q.q.0.0.0.0.0.0.0.0.0.0.0.0.0.0.0.0.0.0.0.0.0.0.0.=./ 3 q.q.q.q.",
"q.q.q.0.0.0.0.0.0.0.0.0.0.0.0.0.0.0.0.0.0.0.0.0.0.X.1 , ; q.q.q.",
"q.q.q.0.0.0.0.0.0.0.0.0.0.0.0.0.0.0.0.0.0.0.0.0.5.' > i : q.q.q.",
"q.q.q.q.0.0.0.0.0.0.0.0.0.0.0.0.0.0.0.0.0.0.0.0.:.^ Q W 2 q.q.q.",
"q.q.q.q.0.0.0.0.0.0.0.0.0.0.0.0.0.0.0.0.0.0.0.0.o.. M ! B   q.q.",
"q.q.q.q.q.q.0.0.0.0.0.0.0.0.0.0.0.0.0.0.0.0.0.8.~ Y E T R < q.q.",
"q.q.q.q.q.q.q.q.q.0.0.0.0.q.q.q.q.0.0.0.0.q.q.q.9 8 6 6 w 7 q.q.",
"q.q.q.q.q.q.q.q.q.0.0.0.0.q.q.q.q.0.0.0.0.q.q.q.q.q.q.q.q.q.q.q.",
"q.q.q.q.q.q.q.q.q.0.0.0.0.q.q.q.q.0.0.0.0.q.q.q.q.q.q.q.q.q.q.q.",
"q.q.q.q.q.q.q.q.q.0.0.0.q.q.q.q.q.0.0.0.q.q.q.q.q.q.q.q.q.q.q.q.",
"q.q.q.q.q.q.q.q.q.q.q.q.q.q.q.q.q.q.q.q.q.q.q.q.q.q.q.q.q.q.q.q."
};
